<svg width="101" height="100" viewBox="0 0 101 100" fill="none" xmlns="http://www.w3.org/2000/svg">
<rect x="1" y="0.5" width="99" height="99" rx="49.5" fill="#FEFCE8"/>
<rect x="1" y="0.5" width="99" height="99" rx="49.5" stroke="#FEF08A"/>
<path d="M53.0875 30.753C53.4338 29.7747 53.6219 28.7218 53.6219 27.625C53.6219 22.4473 49.4247 18.25 44.247 18.25C39.0693 18.25 34.872 22.4473 34.872 27.625C34.872 28.7218 35.0604 29.7747 35.4065 30.753C28.2666 30.7791 24.4563 31.0325 21.9929 33.4959C19.5297 35.959 19.2761 39.7688 19.25 46.9075C20.2266 46.5625 21.2774 46.375 22.372 46.375C27.5497 46.375 31.747 50.5722 31.747 55.75C31.747 60.9278 27.5497 65.125 22.372 65.125C21.2774 65.125 20.2266 64.9375 19.25 64.5925C19.2761 71.7313 19.5297 75.5409 21.9929 78.0041C24.456 80.4672 28.2659 80.7209 35.4044 80.7469C35.0596 79.7703 34.872 78.7197 34.872 77.625C34.872 72.4472 39.0693 68.25 44.247 68.25C49.4247 68.25 53.6219 72.4472 53.6219 77.625C53.6219 78.7197 53.4344 79.7703 53.0897 80.7469C60.2281 80.7209 64.0381 80.4672 66.5013 78.0041C68.9644 75.5406 69.2178 71.7303 69.2441 64.5906C70.2222 64.9366 71.275 65.125 72.3719 65.125C77.5497 65.125 81.7469 60.9278 81.7469 55.75C81.7469 50.5722 77.5497 46.375 72.3719 46.375C71.275 46.375 70.2222 46.5634 69.2441 46.9094C69.2178 39.7696 68.9644 35.9593 66.5013 33.4959C64.0378 31.0325 60.2275 30.7791 53.0875 30.753Z" fill="#EAB308" stroke="#EAB308" stroke-width="3.9525" stroke-linejoin="round"/>
</svg>
