<svg width="20" height="20" viewBox="0 0 20 20" fill="none" xmlns="http://www.w3.org/2000/svg">
<path d="M10 0.5C7.41917 0.5 7.09696 0.511875 6.08363 0.557C5.07188 0.6045 4.38313 0.763625 3.7775 0.99875C3.15287 1.241 2.62246 1.56638 2.09442 2.09442C1.56638 2.62246 1.24021 3.15208 0.99875 3.7775C0.763625 4.38313 0.603708 5.07188 0.557 6.08363C0.5095 7.09696 0.5 7.41917 0.5 10C0.5 12.5808 0.511875 12.903 0.557 13.9164C0.6045 14.9273 0.763625 15.6169 0.99875 16.2225C1.241 16.8463 1.56638 17.3775 2.09442 17.9056C2.62246 18.4328 3.15208 18.7598 3.7775 19.0013C4.38392 19.2356 5.07267 19.3963 6.08363 19.443C7.09696 19.4905 7.41917 19.5 10 19.5C12.5808 19.5 12.903 19.4881 13.9164 19.443C14.9273 19.3955 15.6169 19.2356 16.2225 19.0013C16.8463 18.759 17.3775 18.4328 17.9056 17.9056C18.4328 17.3775 18.7598 16.8487 19.0013 16.2225C19.2356 15.6169 19.3963 14.9273 19.443 13.9164C19.4905 12.903 19.5 12.5808 19.5 10C19.5 7.41917 19.4881 7.09696 19.443 6.08363C19.3955 5.07267 19.2356 4.38233 19.0013 3.7775C18.759 3.15287 18.4328 2.62246 17.9056 2.09442C17.3775 1.56638 16.8487 1.24021 16.2225 0.99875C15.6169 0.763625 14.9273 0.603708 13.9164 0.557C12.903 0.5095 12.5808 0.5 10 0.5ZM10 2.21C12.5357 2.21 12.8381 2.22267 13.8396 2.26621C14.7658 2.30975 15.2685 2.46333 15.6026 2.59475C16.0475 2.76654 16.3626 2.97238 16.6967 3.30408C17.0284 3.63658 17.2342 3.95246 17.406 4.39737C17.5359 4.73146 17.691 5.23417 17.733 6.16042C17.7781 7.16267 17.7884 7.4635 17.7884 10C17.7884 12.5365 17.7765 12.8381 17.7298 13.8396C17.6815 14.7658 17.5272 15.2685 17.3965 15.6026C17.2192 16.0475 17.0173 16.3626 16.6848 16.6967C16.3531 17.0284 16.0325 17.2342 15.5923 17.406C15.2598 17.5359 14.7492 17.691 13.823 17.733C12.8144 17.7781 12.5175 17.7884 9.97625 17.7884C7.43421 17.7884 7.13733 17.7765 6.12954 17.7298C5.2025 17.6815 4.69187 17.5272 4.35938 17.3965C3.90892 17.2192 3.59938 17.0173 3.26767 16.6848C2.93438 16.3531 2.72142 16.0325 2.55517 15.5923C2.42454 15.2598 2.27096 14.7492 2.22267 13.823C2.18704 12.8255 2.17438 12.5175 2.17438 9.98812C2.17438 7.45796 2.18704 7.14921 2.22267 6.13983C2.27096 5.21358 2.42454 4.70375 2.55517 4.37125C2.72142 3.92 2.93438 3.61125 3.26767 3.27796C3.59938 2.94625 3.90892 2.7325 4.35938 2.56704C4.69187 2.43563 5.19142 2.28125 6.11767 2.23375C7.12704 2.19813 7.42392 2.18625 9.96438 2.18625L10 2.21ZM10 5.12175C7.30438 5.12175 5.12175 7.30675 5.12175 10C5.12175 12.6956 7.30675 14.8783 10 14.8783C12.6956 14.8783 14.8783 12.6933 14.8783 10C14.8783 7.30438 12.6933 5.12175 10 5.12175ZM10 13.1667C8.25042 13.1667 6.83333 11.7496 6.83333 10C6.83333 8.25042 8.25042 6.83333 10 6.83333C11.7496 6.83333 13.1667 8.25042 13.1667 10C13.1667 11.7496 11.7496 13.1667 10 13.1667ZM16.2114 4.92938C16.2114 5.55875 15.7 6.06938 15.0714 6.06938C14.442 6.06938 13.9314 5.55796 13.9314 4.92938C13.9314 4.30079 14.4428 3.79017 15.0714 3.79017C15.6992 3.78938 16.2114 4.30079 16.2114 4.92938Z" fill="black" fill-opacity="0.9"/>
</svg>
