<svg width="17" height="16" viewBox="0 0 17 16" fill="none" xmlns="http://www.w3.org/2000/svg">
<path d="M14.1313 13.6347H11.762V9.922C11.762 9.03667 11.744 7.89733 10.5273 7.89733C9.292 7.89733 9.10333 8.86067 9.10333 9.85667V13.6347H6.734V6H9.01V7.04067H9.04067C9.35867 6.44067 10.132 5.80733 11.2873 5.80733C13.688 5.80733 14.132 7.38733 14.132 9.444L14.1313 13.6347ZM4.058 4.95533C3.29533 4.95533 2.68267 4.338 2.68267 3.57867C2.68267 2.82 3.296 2.20333 4.058 2.20333C4.818 2.20333 5.434 2.82 5.434 3.57867C5.434 4.338 4.81733 4.95533 4.058 4.95533ZM5.246 13.6347H2.87V6H5.246V13.6347ZM15.3167 0H1.68067C1.028 0 0.5 0.516 0.5 1.15267V14.8473C0.5 15.4847 1.028 16 1.68067 16H15.3147C15.9667 16 16.5 15.4847 16.5 14.8473V1.15267C16.5 0.516 15.9667 0 15.3147 0H15.3167Z" fill="black" fill-opacity="0.9"/>
</svg>
