<svg width="101" height="100" viewBox="0 0 101 100" fill="none" xmlns="http://www.w3.org/2000/svg">
<rect x="1" y="0.5" width="99" height="99" rx="49.5" fill="#F0F9FF"/>
<rect x="1" y="0.5" width="99" height="99" rx="49.5" stroke="#BAE6FD"/>
<path d="M47.375 38H53.625C62.4637 38 66.8831 38 69.629 40.7459C72.375 43.4918 72.375 47.9112 72.375 56.75C72.375 65.5887 72.375 70.0081 69.629 72.7541C66.8831 75.5 62.4637 75.5 53.625 75.5H50.5C50.5 75.5 48.9375 81.75 38 81.75C38 81.75 41.125 78.5978 41.125 75.4459C36.2704 75.2997 33.3749 74.7581 31.3708 72.7541C28.625 70.0081 28.625 65.5887 28.625 56.75C28.625 47.9112 28.625 43.4918 31.3708 40.7459C34.1167 38 38.5361 38 47.375 38Z" fill="#0EA5E9" stroke="#0EA5E9" stroke-width="3.95621" stroke-linejoin="round"/>
<path d="M72.3749 48.9375H73.9374C76.8581 48.9375 78.3184 48.9375 79.4062 49.5656C80.1187 49.9769 80.7106 50.5688 81.1218 51.2813C81.7499 52.3691 81.7499 53.8294 81.7499 56.75C81.7499 59.6706 81.7499 61.1309 81.1218 62.2187C80.7106 62.9312 80.1187 63.5231 79.4062 63.9344C78.3184 64.5625 76.8581 64.5625 73.9374 64.5625H72.3749" stroke="#0EA5E9" stroke-width="4.5" stroke-linejoin="round"/>
<path d="M28.625 48.9375H27.0625C24.1418 48.9375 22.6815 48.9375 21.5937 49.5656C20.8811 49.9769 20.2894 50.5688 19.878 51.2813C19.25 52.3691 19.25 53.8294 19.25 56.75C19.25 59.6706 19.25 61.1309 19.878 62.2188C20.2894 62.9313 20.8811 63.5231 21.5937 63.9344C22.6815 64.5625 24.1418 64.5625 27.0625 64.5625H28.625" stroke="#0EA5E9" stroke-width="4.5" stroke-linejoin="round"/>
<path d="M55.1874 23.9375C55.1874 26.5263 53.0887 28.625 50.4999 28.625C47.9112 28.625 45.8124 26.5263 45.8124 23.9375C45.8124 21.3487 47.9112 19.25 50.4999 19.25C53.0887 19.25 55.1874 21.3487 55.1874 23.9375Z" fill="#0EA5E9" stroke="#0EA5E9" stroke-width="3.95621"/>
<path d="M50.4999 28.625V38" stroke="#0EA5E9" stroke-width="3.95621" stroke-linecap="round" stroke-linejoin="round"/>
<path d="M41.1249 50.5V53.625M59.8749 50.5V53.625" stroke="white" stroke-width="3.95621" stroke-linecap="round" stroke-linejoin="round"/>
<path d="M44.2499 64.5625C44.2499 64.5625 46.3334 66.125 50.4999 66.125C54.6665 66.125 56.7499 64.5625 56.7499 64.5625" stroke="white" stroke-width="3.95621" stroke-linecap="round"/>
</svg>
