<svg width="101" height="100" viewBox="0 0 101 100" fill="none" xmlns="http://www.w3.org/2000/svg">
<rect x="1" y="0.5" width="99" height="99" rx="49.5" fill="#FFF1F2"/>
<rect x="1" y="0.5" width="99" height="99" rx="49.5" stroke="#FECDD3"/>
<path d="M39.9628 52.605H38.5286C33.8919 52.605 31.5736 52.605 30.5854 51.0763C29.5972 49.5478 30.5387 47.4181 32.4219 43.1588L38.0832 30.3538C39.7954 26.4812 40.6515 24.5449 42.3123 23.46C43.9731 22.375 46.0808 22.375 50.2968 22.375H56.8261C61.9474 22.375 64.508 22.375 65.4736 24.048C66.4396 25.7209 65.1692 27.9559 62.6283 32.4257L59.2786 38.3184C58.0155 40.5405 57.3839 41.6515 57.3927 42.561C57.4042 43.743 58.0327 44.8319 59.048 45.4281C59.8292 45.8872 61.1021 45.8872 63.648 45.8872C66.8664 45.8872 68.4758 45.8872 69.3139 46.4444C70.4027 47.1681 70.9727 48.4631 70.773 49.76C70.6193 50.7581 69.5368 51.955 67.3717 54.3491L50.0746 73.4759C46.6771 77.2328 44.9783 79.1113 43.8376 78.5169C42.6968 77.9222 43.2447 75.4444 44.3402 70.4881L46.4864 60.78C47.3205 57.0063 47.7377 55.1194 46.7346 53.8622C45.7314 52.605 43.8085 52.605 39.9628 52.605Z" fill="#F43F5E" stroke="#F43F5E" stroke-width="3.9525" stroke-linejoin="round"/>
</svg>
