<svg width="16" height="16" viewBox="0 0 16 16" fill="none" xmlns="http://www.w3.org/2000/svg">
<path d="M5.04471 0.875C5.15309 0.875045 5.2603 0.897343 5.35971 0.94051C5.45912 0.983678 5.54861 1.0468 5.62263 1.12596L5.6828 1.19879L9.06638 5.81263L13.7736 1.10696C13.9161 0.964975 14.1073 0.882542 14.3083 0.876403C14.5094 0.870264 14.7052 0.940879 14.8561 1.07391C15.0069 1.20693 15.1015 1.3924 15.1206 1.59263C15.1396 1.79286 15.0818 1.99284 14.9588 2.15196L14.893 2.22637L10.014 7.10463L14.9714 13.8655C15.0535 13.9775 15.1047 14.1092 15.1198 14.2472C15.1349 14.3853 15.1134 14.5249 15.0575 14.652C15.0016 14.7792 14.9132 14.8894 14.8013 14.9716C14.6893 15.0537 14.5577 15.105 14.4196 15.1202L14.3333 15.125H10.9553C10.8469 15.125 10.7397 15.1027 10.6403 15.0595C10.5409 15.0163 10.4514 14.9532 10.3774 14.874L10.3172 14.8012L6.93205 10.1866L2.22638 14.893C2.08391 15.035 1.89274 15.1175 1.6917 15.1236C1.49066 15.1297 1.29482 15.0591 1.14395 14.9261C0.993087 14.7931 0.898513 14.6076 0.879439 14.4074C0.860365 14.2071 0.91822 14.0072 1.04125 13.848L1.10696 13.7736L5.98442 8.89458L1.02859 2.13454C0.9465 2.02251 0.895331 1.89085 0.880219 1.75278C0.865107 1.61471 0.886584 1.4751 0.942494 1.34796C0.998404 1.22082 1.08678 1.11063 1.19874 1.02844C1.31071 0.94626 1.44233 0.894979 1.58038 0.87975L1.66667 0.875H5.04471Z" fill="black" fill-opacity="0.9"/>
</svg>
